HIERARCHY
ROOT Hips
{
	OFFSET 55.489799 -3.865194 83.751701
	CHANNELS 6 Xposition Yposition Zposition Xrotation Yrotation Zrotation
	JOINT spine
	{
		OFFSET 0.000000 -0.342408 5.954384
		CHANNELS 3 Xrotation Yrotation Zrotation
		JOINT spine1
		{
			OFFSET 0.000000 -0.000001 8.856018
			CHANNELS 3 Xrotation Yrotation Zrotation
			JOINT spine2
			{
				OFFSET 0.000000 -0.000001 8.485672
				CHANNELS 3 Xrotation Yrotation Zrotation
				JOINT Neck
				{
					OFFSET 0.000000 -1.038703 21.786301
					CHANNELS 3 Xrotation Yrotation Zrotation
					JOINT Head
					{
						OFFSET 0.000000 -0.000001 6.582199
						CHANNELS 3 Xrotation Yrotation Zrotation
						End Site
						{
							OFFSET 0.000000 5.254357 15.932602
						}
					}
				}
				JOINT RightShoulder
				{
					OFFSET -3.573071 0.497524 9.163864
					CHANNELS 3 Xrotation Yrotation Zrotation
					JOINT RightArm
					{
						OFFSET 0.000000 -0.000002 12.019196
						CHANNELS 3 Xrotation Yrotation Zrotation
						JOINT RightArmRoll
						{
							OFFSET 0.000000 -0.000001 6.067551
							CHANNELS 3 Xrotation Yrotation Zrotation
							JOINT RightForeArm
							{
								OFFSET 0.000000 -0.000003 17.672592
								CHANNELS 3 Xrotation Yrotation Zrotation
								JOINT RightForeArmRoll
								{
									OFFSET 0.000000 -0.000001 6.808731
									CHANNELS 3 Xrotation Yrotation Zrotation
									JOINT RightHand
									{
										OFFSET 0.000000 -0.000002 13.663605
										CHANNELS 3 Xrotation Yrotation Zrotation
										End Site
										{
											OFFSET 0.000000 0.000000 0.100006
										}
									}
								}
							}
						}
					}
				}
				JOINT LeftShoulder
				{
					OFFSET 3.573071 0.497524 9.163864
					CHANNELS 3 Xrotation Yrotation Zrotation
					JOINT LeftArm
					{
						OFFSET 0.000000 -0.000002 12.019196
						CHANNELS 3 Xrotation Yrotation Zrotation
						JOINT LeftArmRoll
						{
							OFFSET 0.000000 -0.000001 6.067551
							CHANNELS 3 Xrotation Yrotation Zrotation
							JOINT LeftForeArm
							{
								OFFSET 0.000000 -0.000003 17.672592
								CHANNELS 3 Xrotation Yrotation Zrotation
								JOINT LeftForeArmRoll
								{
									OFFSET 0.000000 -0.000001 6.808731
									CHANNELS 3 Xrotation Yrotation Zrotation
									JOINT LeftHand
									{
										OFFSET 0.000000 -0.000002 13.663605
										CHANNELS 3 Xrotation Yrotation Zrotation
										End Site
										{
											OFFSET 0.000000 0.000000 0.100006
										}
									}
								}
							}
						}
					}
				}
			}
		}
	}
	JOINT RightUpLeg
	{
		OFFSET -5.277740 0.811858 -0.967796
		CHANNELS 3 Xrotation Yrotation Zrotation
		JOINT RightUpLegRoll
		{
			OFFSET 0.000000 -0.000003 16.021400
			CHANNELS 3 Xrotation Yrotation Zrotation
			JOINT RightLeg
			{
				OFFSET 0.000000 0.000003 -19.840096
				CHANNELS 3 Xrotation Yrotation Zrotation
				JOINT RightLegRoll
				{
					OFFSET 0.000000 -0.000003 19.904999
					CHANNELS 3 Xrotation Yrotation Zrotation
					JOINT RightFoot
					{
						OFFSET 0.000000 -0.000003 16.567497
						CHANNELS 3 Xrotation Yrotation Zrotation
						JOINT RightToeBase
						{
							OFFSET 0.000000 -0.000002 13.849602
							CHANNELS 3 Xrotation Yrotation Zrotation
							End Site
							{
								OFFSET 0.005871 0.773116 6.707275
							}
						}
					}
				}
			}
		}
	}
	JOINT LeftUpLeg
	{
		OFFSET 5.277740 0.811858 -0.967796
		CHANNELS 3 Xrotation Yrotation Zrotation
		JOINT LeftUpLegRoll
		{
			OFFSET 0.000000 -0.000003 16.021500
			CHANNELS 3 Xrotation Yrotation Zrotation
			JOINT LeftLeg
			{
				OFFSET 0.000000 -0.000003 19.839996
				CHANNELS 3 Xrotation Yrotation Zrotation
				JOINT LeftLegRoll
				{
					OFFSET 0.000000 -0.000003 20.089005
					CHANNELS 3 Xrotation Yrotation Zrotation
					JOINT LeftFoot
					{
						OFFSET 0.000000 -0.000003 16.383499
						CHANNELS 3 Xrotation Yrotation Zrotation
						JOINT LeftToeBase
						{
							OFFSET 0.000000 -0.000002 13.849594
							CHANNELS 3 Xrotation Yrotation Zrotation
							End Site
							{
								OFFSET -0.026310 0.773116 6.707275
							}
						}
					}
				}
			}
		}
	}
}
MOTION
Frames: 5
Frame Time: 0.041667
54.145905 -1.979191 81.536087 5.316120 -0.577677 8.930131 -2.550210 0.018679 -0.082624 -1.097550 0.040240 -0.164816 0.547513 0.038269 -0.165296 -3.755422 30.529484 -3.139444 3.362354 -31.558250 -7.850946 -37.268060 -63.373343 -43.820687 -547.867505 -243.537444 -414.367086 0.000000 -0.000000 0.000000 -0.401909 3.638901 -1.981291 -0.000002 0.000004 -3.011780 -5.000172 -7.999919 0.000013 -13.637513 34.494747 15.131545 -523.769778 186.174564 455.924853 -0.000001 0.000001 0.000001 34.034699 -3.499089 3.322688 -0.000000 0.000006 2.999998 -5.000142 7.999937 -0.000004 -14.406341 -159.838516 2.304846 -179.999991 0.000002 -1.534987 154.275108 6.574151 0.216301 0.000001 -0.000002 0.244178 68.059195 7.312804 1.104503 26.266442 -7.342559 0.910621 -17.254296 -194.080700 1.908228 -0.000005 -0.000007 -1.496121 -26.788874 -5.860180 -0.579496 0.000004 -0.000005 -0.284750 68.015338 -7.379485 -0.927011 25.997735 7.349441 -0.636054 
54.317703 -1.984573 81.835190 5.132445 -0.680728 8.770741 -2.543160 0.048228 -0.082479 -1.083412 0.099307 -0.163447 0.561657 0.097349 -0.164631 -3.468224 30.164345 -3.134496 3.384207 -31.300080 -7.691397 -37.048012 -64.542515 -43.337178 -547.161318 -243.534302 -414.904540 0.000000 0.000000 -0.000001 -0.206437 3.639028 -1.987259 -0.000001 0.000003 -3.011688 -5.000171 -7.999919 0.000014 -13.384047 34.509019 14.781042 -523.761035 185.418749 456.220355 -0.000003 0.000000 -0.000001 34.301931 -3.494313 3.331168 0.000000 0.000006 3.000002 -5.000141 7.999938 -0.000003 -13.994673 -159.776430 2.511108 -179.999991 0.000006 -1.535985 154.879703 6.403529 0.166437 -0.000000 -0.000005 0.152571 67.719167 7.345675 1.059160 25.939641 -7.350683 0.542509 -16.571145 -194.040183 1.694352 -0.000005 -0.000006 -1.490581 -26.016744 -5.665951 -0.514262 0.000006 -0.000001 -0.178271 67.592126 -7.415931 -0.887896 25.778459 7.353283 -0.377962 
54.226704 -2.157376 82.162689 4.946070 -0.773109 8.626014 -2.533583 0.075941 -0.081880 -1.064234 0.154681 -0.161221 0.580835 0.152745 -0.163071 -3.192420 29.791212 -3.136496 3.405242 -31.035854 -7.541171 -36.715682 -65.522763 -42.747504 -546.277218 -243.383737 -415.752467 -0.000001 0.000000 0.000001 -0.075058 3.639117 -1.991285 -0.000001 0.000004 -3.011634 -5.000172 -7.999919 0.000011 -13.128721 34.523925 14.427494 -523.759341 184.634848 456.515911 -0.000001 0.000000 0.000001 34.618957 -3.488490 3.341346 0.000001 0.000006 3.000001 -5.000142 7.999939 -0.000006 -13.579466 -159.739437 2.711122 -179.999991 0.000006 -1.537993 155.463151 6.245643 0.124190 -0.000001 -0.000005 0.070347 67.415265 7.374861 1.022984 25.666413 -7.354508 0.235281 -15.913122 -193.989708 1.495376 -0.000004 -0.000003 -1.485310 -25.284035 -5.491204 -0.460349 0.000005 -0.000003 -0.083341 67.218610 -7.448012 -0.857355 25.595926 7.355085 -0.163282 
54.407703 -2.186223 82.484398 4.757999 -0.852937 8.498180 -2.521492 0.101420 -0.080757 -1.040037 0.205560 -0.158016 0.605041 0.203661 -0.160476 -2.929504 29.412144 -3.146460 3.425947 -30.767724 -7.401300 -36.266805 -66.292286 -42.053645 -545.237172 -243.068428 -416.906168 -0.000001 -0.000000 -0.000000 -0.027002 3.639170 -1.992764 -0.000000 0.000003 -3.011610 -5.000173 -7.999919 0.000011 -12.871850 34.540717 14.071243 -523.763986 183.822998 456.811248 -0.000000 -0.000000 0.000000 34.987367 -3.481555 3.353279 0.000000 0.000006 3.000000 -5.000143 7.999938 -0.000005 -13.161809 -159.730695 2.902608 -179.999991 0.000005 -1.539988 156.022503 6.101694 0.088639 -0.000002 -0.000005 -0.001737 67.151196 7.399929 0.996570 25.456861 -7.355618 -0.000003 -15.285810 -193.930080 1.313129 -0.000004 -0.000004 -1.480311 -24.596423 -5.338740 -0.417586 0.000005 -0.000003 -0.001245 66.901136 -7.474788 -0.836259 25.456948 7.355602 -0.000005 
54.348705 -2.315845 82.781403 4.559833 -0.924586 8.385215 -2.504585 0.125850 -0.079143 -1.006190 0.254317 -0.153865 0.638892 0.252463 -0.156908 -2.703494 29.002735 -3.158220 3.468111 -30.473172 -7.263348 -35.678456 -66.859178 -41.240583 -543.938780 -242.620914 -418.440283 0.000000 0.000000 0.000000 -0.104772 3.639574 -1.990738 -0.000001 0.000003 -3.011630 -5.000172 -7.999920 0.000011 -12.615302 34.539065 13.711597 -523.774313 182.970564 457.110629 -0.000001 0.000000 -0.000002 35.410703 -3.473781 3.367475 -0.000000 0.000005 2.999999 -5.000142 7.999939 -0.000005 -12.729326 -159.742525 3.091542 -179.999991 0.000005 -1.542993 156.568235 5.968933 0.058502 -0.000002 -0.000001 -0.062308 66.929160 7.419045 0.981432 25.303616 -7.355424 -0.171952 -14.674065 -193.859606 1.145790 -0.000004 -0.000006 -1.475789 -23.944287 -5.207922 -0.383529 0.000006 -0.000003 0.067086 66.641760 -7.494823 -0.825472 25.355935 7.355532 0.118563 
